<svg width="19" height="20" viewBox="0 0 19 20" fill="none" xmlns="http://www.w3.org/2000/svg">
<path d="M3.828 5.95L6.364 8.486L4.95 9.9L0 4.95L4.95 0L6.364 1.414L3.828 3.95H11C13.1217 3.95 15.1566 4.79286 16.6569 6.29315C18.1571 7.79344 19 9.82827 19 11.95C19 14.0717 18.1571 16.1066 16.6569 17.6069C15.1566 19.1071 13.1217 19.95 11 19.95H2V17.95H11C12.5913 17.95 14.1174 17.3179 15.2426 16.1926C16.3679 15.0674 17 13.5413 17 11.95C17 10.3587 16.3679 8.83258 15.2426 7.70736C14.1174 6.58214 12.5913 5.95 11 5.95H3.828Z" fill="#0073BC"/>
</svg>
