<svg width="26" height="32" viewBox="0 0 26 32" fill="none" xmlns="http://www.w3.org/2000/svg">
<g clip-path="url(#clip0)">
<path d="M13.0493 0C10.7435 0.00513411 8.48527 0.656888 6.5313 1.88121C4.57734 3.10554 3.00592 4.85335 1.9956 6.92608C0.985274 8.99881 0.57654 11.3134 0.815836 13.6068C1.05513 15.9002 1.93286 18.0805 3.34931 19.9L13.0493 32V0Z" fill="#0073BC"/>
<path d="M13.0493 32L22.6493 19.9C24.3443 17.7302 25.26 15.0533 25.2493 12.3C25.2701 10.6874 24.9695 9.08683 24.365 7.59167C23.7606 6.09651 22.8643 4.73673 21.7286 3.59171C20.5929 2.44669 19.2405 1.53937 17.7503 0.922697C16.2601 0.306026 14.662 -0.00763793 13.0493 1.46533e-05V32Z" fill="#0073BC"/>
<path d="M19.5 5H6.5C5.67156 5 5 5.67156 5 6.5V17.5C5 18.3284 5.67156 19 6.5 19H19.5C20.3284 19 21 18.3284 21 17.5V6.5C21 5.67156 20.3284 5 19.5 5ZM10 18H6.5C6.22384 18 6 17.7762 6 17.5V15H10V18ZM10 14H6V11H10V14ZM10 10H6V7H10V10ZM15 18H11V15H15V18ZM15 14H11V11H15V14ZM15 10H11V7H15V10ZM20 15V17.5C20 17.7762 19.7762 18 19.5 18H16V15H20ZM20 14H16V11H20V14ZM20 10H16V7H20V10Z" fill="white"/>
</g>
<defs>
<clipPath id="clip0">
<rect width="24.5013" height="32" fill="white" transform="translate(0.749268)"/>
</clipPath>
</defs>
</svg>
