<svg width="26" height="32" viewBox="0 0 26 32" fill="none" xmlns="http://www.w3.org/2000/svg">
<g clip-path="url(#clip0)">
<path d="M13.0493 0C10.7435 0.00513411 8.48527 0.656888 6.5313 1.88121C4.57734 3.10554 3.00592 4.85335 1.9956 6.92608C0.985274 8.99881 0.57654 11.3134 0.815836 13.6068C1.05513 15.9002 1.93286 18.0805 3.34931 19.9L13.0493 32V0Z" fill="#0073BC"/>
<path d="M13.0493 32L22.6493 19.9C24.3443 17.7302 25.26 15.0533 25.2493 12.3C25.2701 10.6874 24.9695 9.08683 24.365 7.59167C23.7606 6.09651 22.8643 4.73673 21.7286 3.59171C20.5929 2.44669 19.2405 1.53937 17.7503 0.922697C16.2601 0.306026 14.662 -0.00763793 13.0493 1.46533e-05V32Z" fill="#0073BC"/>
<path d="M19.9493 5.49998C19.8335 5.37662 19.6943 5.27769 19.5397 5.20899C19.3851 5.14029 19.2184 5.10323 19.0493 5.09998H7.04927C6.87971 5.10053 6.71212 5.13638 6.55717 5.20525C6.40222 5.27412 6.26331 5.37449 6.14927 5.49998C5.91773 5.74593 5.77668 6.06329 5.74927 6.39998V15.6C5.74982 15.7695 5.78568 15.9371 5.85454 16.0921C5.92341 16.247 6.02378 16.3859 6.14927 16.5C6.26501 16.6233 6.40426 16.7223 6.55883 16.791C6.7134 16.8597 6.88015 16.8967 7.04927 16.9H19.1493C19.3188 16.8994 19.4864 16.8636 19.6414 16.7947C19.7963 16.7258 19.9352 16.6255 20.0493 16.5C20.1726 16.3842 20.2716 16.245 20.3403 16.0904C20.409 15.9358 20.446 15.7691 20.4493 15.6V6.39998C20.3437 6.06988 20.1738 5.76398 19.9493 5.49998ZM19.3493 15.6C19.3545 15.6395 19.3477 15.6796 19.3299 15.7153C19.3121 15.7509 19.284 15.7804 19.2493 15.8C19.1954 15.8543 19.1251 15.8895 19.0493 15.9H7.04927C7.00976 15.9052 6.9696 15.8984 6.93395 15.8806C6.89831 15.8628 6.86881 15.8347 6.84927 15.8C6.79491 15.7461 6.75977 15.6758 6.74927 15.6V11H19.3493V15.6ZM19.3493 8.09998H6.74927V6.39998C6.74407 6.36047 6.75081 6.3203 6.76864 6.28466C6.78646 6.24902 6.81454 6.21952 6.84927 6.19998C6.90317 6.14562 6.97344 6.11048 7.04927 6.09998H19.1493C19.1888 6.09478 19.2289 6.10152 19.2646 6.11934C19.3002 6.13717 19.3297 6.16525 19.3493 6.19998C19.4036 6.25388 19.4388 6.32415 19.4493 6.39998L19.3493 8.09998Z" fill="white"/>
<path d="M17.5493 13.0999H15.7493V14.7999H17.5493V13.0999Z" fill="white"/>
</g>
<defs>
<clipPath id="clip0">
<rect width="24.5013" height="32" fill="white" transform="translate(0.749268)"/>
</clipPath>
</defs>
</svg>
