<svg width="15" height="14" viewBox="0 0 15 14" fill="none" xmlns="http://www.w3.org/2000/svg">
<path fill-rule="evenodd" clip-rule="evenodd" d="M1.98587 3.50805L1.47401 2.88467L3.65863 0.914219L4.08837 1.43774C4.36086 1.27023 4.64269 1.11626 4.93991 0.989808L4.41499 0.3515C4.08837 -0.0460423 3.48459 -0.116965 3.06652 0.19379L0.881897 2.16424C0.463824 2.47499 0.389635 3.04938 0.716721 3.44739L1.50481 4.40765C1.64105 4.09363 1.80436 3.79454 1.98587 3.50805ZM14.1175 2.16424L11.9333 0.19379C11.5148 -0.116965 10.911 -0.0465089 10.5844 0.3515L10.0599 0.989808C10.3571 1.11626 10.639 1.26977 10.9115 1.43774L11.3412 0.914219L13.5258 2.88467L13.0135 3.50805C13.1955 3.79454 13.3583 4.09363 13.4941 4.40765L14.2822 3.44739C14.6102 3.04938 14.536 2.47499 14.1175 2.16424ZM13.4572 13.2343L11.5129 10.9008C12.4932 9.89252 13.0989 8.51839 13.0989 7.00101C13.0989 3.90885 10.5918 1.40182 7.49968 1.40182C4.40752 1.40182 1.90048 3.90885 1.90048 7.00101C1.90048 8.51839 2.5066 9.89252 3.48646 10.9008L1.54214 13.2343L1.5468 13.2385C1.47961 13.3197 1.43388 13.42 1.43388 13.5334C1.43388 13.7914 1.64245 14 1.90048 14C2.04466 14 2.16831 13.9309 2.25417 13.8283L2.25883 13.8325L4.19289 11.5121C5.12002 12.1929 6.26132 12.6002 7.50014 12.6002C8.7385 12.6002 9.88027 12.1929 10.8074 11.5121L12.741 13.8325L12.7457 13.8283C12.8315 13.9309 12.9552 14 13.0993 14C13.3574 14 13.5659 13.7914 13.5659 13.5334C13.5659 13.42 13.5202 13.3197 13.453 13.2385L13.4572 13.2343ZM7.50014 11.6665C4.92311 11.6665 2.83415 9.57757 2.83415 7.00054C2.83415 4.42398 4.84986 2.33455 7.50014 2.33455C10.0921 2.33455 12.1661 4.42398 12.1661 7.00054C12.1661 9.57757 10.0772 11.6665 7.50014 11.6665ZM9.51679 4.34372L7.24585 6.75698L5.94823 5.37818C5.76906 5.1878 5.47883 5.1878 5.29919 5.37818C5.12049 5.56855 5.12049 5.87697 5.29919 6.06734L6.92156 7.79096C7.1012 7.98133 7.39143 7.98133 7.5706 7.79096L10.1658 5.03336C10.345 4.84299 10.345 4.5341 10.1658 4.34326C9.98619 4.15382 9.69596 4.15382 9.51679 4.34372Z" fill="#FF8A01"/>
</svg>
