<svg width="32" height="32" viewBox="0 0 32 32" fill="none" xmlns="http://www.w3.org/2000/svg">
<rect width="32" height="32" rx="16" fill="#0073BC"/>
<path d="M20.7059 16.1071H21.8824V17.4582H20.7059V16.1071Z" fill="white"/>
<path d="M13.0588 15.2063V14.3055H14.2353V15.2063H15.4118V14.3055H16.5882V15.2063H21.2941V8H17.7647V10.252H14.2353V8H10.7059V15.2063H13.0588Z" fill="white"/>
<path d="M15.4118 8H16.5882V9.35118H15.4118V8Z" fill="white"/>
<path d="M23.0588 18.359H19.5294V16.1071H16.5882V23.3133H18.9412V22.4126H20.1176V23.3133H21.2941V22.4126H22.4706V23.3133H26V16.1071H23.0588V18.359Z" fill="white"/>
<path d="M10.1176 16.1071H11.2941V17.4582H10.1176V16.1071Z" fill="white"/>
<path d="M12.4706 16.1071V18.359H8.94118V16.1071H6V23.3133H7.76471V22.4126H8.94118V23.3133H10.1176V22.4126H11.2941V23.3133H15.4118V16.1071H12.4706Z" fill="white"/>
</svg>
