<svg width="15" height="12" viewBox="0 0 15 12" fill="none" xmlns="http://www.w3.org/2000/svg">
<path d="M11.8131 8.24982H3.19703C3.0939 8.24982 3.00952 8.3342 3.00952 8.43733L3.00718 9.56238C3.00718 9.66551 3.09156 9.74989 3.19469 9.74989H11.8131C11.9162 9.74989 12.0006 9.66551 12.0006 9.56238V8.43733C12.0006 8.3342 11.9162 8.24982 11.8131 8.24982ZM11.8131 10.4999H3.19C3.08687 10.4999 3.00249 10.5843 3.00249 10.6874L3.00015 11.8125C3.00015 11.9156 3.08453 12 3.18766 12H11.8131C11.9162 12 12.0006 11.9156 12.0006 11.8125V10.6874C12.0006 10.5843 11.9162 10.4999 11.8131 10.4999ZM11.8131 5.99971H3.20172C3.09859 5.99971 3.01421 6.08409 3.01421 6.18722L3.01187 7.31227C3.01187 7.4154 3.09624 7.49978 3.19937 7.49978H11.8131C11.9162 7.49978 12.0006 7.4154 12.0006 7.31227V6.18722C12.0006 6.08409 11.9162 5.99971 11.8131 5.99971ZM14.3093 2.74174L7.93164 0.0861385C7.79456 0.0292714 7.6476 0 7.49919 0C7.35079 0 7.20383 0.0292714 7.06675 0.0861385L0.69144 2.74174C0.274232 2.91753 0 3.32536 0 3.78007V11.8125C0 11.9156 0.0843791 12 0.187509 12H2.0626C2.16573 12 2.25011 11.9156 2.25011 11.8125V5.99971C2.25011 5.58719 2.59231 5.24967 3.01421 5.24967H11.9865C12.4084 5.24967 12.7506 5.58719 12.7506 5.99971V11.8125C12.7506 11.9156 12.835 12 12.9381 12H14.8132C14.9164 12 15.0007 11.9156 15.0007 11.8125V3.78007C15.0007 3.32536 14.7265 2.91753 14.3093 2.74174Z" fill="#0073BC"/>
</svg>
