<svg width="22" height="22" viewBox="0 0 22 22" fill="none" xmlns="http://www.w3.org/2000/svg">
<path d="M8.19995 7.49998H0.199951V4.69998H8.19995V7.49998ZM8.19995 11.7H0.199951V14.5H8.19995V11.7ZM0.199951 21.5H16.2V18.7H0.199951V21.5Z" fill="#0073BC"/>
<path d="M16.1999 0.5C13.1079 0.5 10.5999 3.008 10.5999 6.1C10.5999 10.3 16.1999 16.5 16.1999 16.5C16.1999 16.5 21.7999 10.3 21.7999 6.1C21.8 3.008 19.292 0.5 16.1999 0.5ZM16.1999 8.10003C15.0959 8.10003 14.2 7.20404 14.2 6.10003C14.2 4.99603 15.0959 4.10001 16.1999 4.10001C17.3039 4.10001 18.1999 4.99599 18.1999 6.1C18.1999 7.204 17.3039 8.10003 16.1999 8.10003Z" fill="#0073BC"/>
</svg>
