<svg width="16" height="15" viewBox="0 0 16 15" fill="none" xmlns="http://www.w3.org/2000/svg">
<path d="M14.5 0.525146H1.5C0.671562 0.525146 0 1.19671 0 2.02515V13.0251C0 13.8536 0.671562 14.5251 1.5 14.5251H14.5C15.3284 14.5251 16 13.8536 16 13.0251V2.02515C16 1.19671 15.3284 0.525146 14.5 0.525146ZM5 13.5251H1.5C1.22384 13.5251 1 13.3013 1 13.0251V10.5251H5V13.5251ZM5 9.52515H1V6.52515H5V9.52515ZM5 5.52515H1V2.52515H5V5.52515ZM10 13.5251H6V10.5251H10V13.5251ZM10 5.52515H6V2.52515H10V5.52515ZM15 10.5251V13.0251C15 13.3013 14.7762 13.5251 14.5 13.5251H11V10.5251H15ZM15 9.52515H11V6.52515H15V9.52515ZM15 5.52515H11V2.52515H15V5.52515Z" fill="#97A3B6"/>
</svg>
