<svg width="20" height="16" viewBox="0 0 20 16" fill="none" xmlns="http://www.w3.org/2000/svg">
<path d="M16.8731 9.03039L19.9526 15.3566C20.0778 15.6139 19.9462 15.8244 19.6601 15.8244H0.339955C0.0538124 15.8244 -0.0778555 15.6139 0.0474059 15.3566L3.12695 9.03039C3.15625 8.97764 3.19846 8.93318 3.24962 8.90118C3.30079 8.86918 3.35924 8.85068 3.4195 8.84742H6.06005C6.15281 8.85285 6.24011 8.89301 6.3046 8.9599C6.48375 9.16693 6.66623 9.36919 6.84819 9.56938C7.021 9.75941 7.19473 9.95193 7.36708 10.149H4.23339C4.17313 10.1522 4.11467 10.1707 4.06351 10.2027C4.01234 10.2347 3.97013 10.2792 3.94084 10.3319L1.90077 14.5228H18.0991L16.0592 10.3319C16.0299 10.2792 15.9877 10.2347 15.9366 10.2027C15.8854 10.1707 15.8269 10.1522 15.7667 10.149H12.6259C12.7982 9.95193 12.972 9.75942 13.1448 9.56938C13.3273 9.3686 13.5108 9.16674 13.6904 8.95964C13.7548 8.89291 13.8419 8.85285 13.9345 8.84742H16.5806C16.6409 8.85067 16.6993 8.86917 16.7505 8.90117C16.8016 8.93317 16.8438 8.97764 16.8731 9.03039ZM14.5275 4.70713C14.5275 8.16386 11.6498 8.81216 10.2964 12.1341C10.2721 12.1938 10.2306 12.245 10.177 12.2809C10.1235 12.3169 10.0604 12.336 9.99595 12.3359C9.93147 12.3357 9.8685 12.3163 9.81512 12.2801C9.76174 12.2439 9.7204 12.1926 9.69639 12.1328C8.47551 9.13765 6.01541 8.31631 5.54473 5.64807C5.0813 3.02131 6.89999 0.448236 9.55548 0.197223C10.1847 0.135796 10.8198 0.206706 11.42 0.405394C12.0202 0.604082 12.5721 0.926152 13.0404 1.3509C13.5087 1.77565 13.8829 2.29368 14.139 2.8717C14.3951 3.44971 14.5275 4.07491 14.5275 4.70713ZM12.3894 4.70713C12.3894 4.2339 12.249 3.7713 11.9861 3.37783C11.7232 2.98435 11.3495 2.67768 10.9123 2.49658C10.4751 2.31548 9.99403 2.2681 9.5299 2.36042C9.06577 2.45274 8.63943 2.68062 8.30481 3.01525C7.97019 3.34987 7.74231 3.7762 7.64998 4.24034C7.55766 4.70447 7.60504 5.18556 7.78614 5.62277C7.96724 6.05997 8.27391 6.43366 8.66739 6.69657C9.06086 6.95948 9.52346 7.09981 9.99669 7.09981C10.3109 7.09981 10.622 7.03792 10.9123 6.91768C11.2026 6.79744 11.4664 6.62119 11.6886 6.39901C11.9108 6.17683 12.087 5.91306 12.2072 5.62277C12.3275 5.33247 12.3894 5.02134 12.3894 4.70713H12.3894Z" fill="#0073BC"/>
</svg>
