<svg width="12" height="12" viewBox="0 0 12 12" fill="none" xmlns="http://www.w3.org/2000/svg">
<path d="M10.4241 6.63315C10.4241 6.45225 10.4844 6.27134 10.4844 6.03014C10.4844 5.78893 10.4844 5.60803 10.4241 5.42713L11.6904 4.402C11.811 4.2814 11.811 4.1608 11.7507 4.04019L10.5447 1.92964C10.4844 1.86934 10.3638 1.80904 10.1829 1.86934L8.67535 2.47236C8.37384 2.23115 8.01203 2.05025 7.65022 1.86934L7.40902 0.301507C7.46932 0.120603 7.28839 0 7.16781 0H4.75575C4.63513 0 4.45425 0.120603 4.45425 0.241206L4.21304 1.86934C3.85123 1.98995 3.54973 2.23115 3.18792 2.47236L1.74068 1.86934C1.55978 1.80904 1.43918 1.86934 1.31855 1.98995L0.112524 4.10049C0.0522223 4.1608 0.112524 4.3417 0.233127 4.4623L1.49946 5.42713C1.49946 5.60803 1.43915 5.78893 1.43915 6.03014C1.43915 6.27134 1.43915 6.45225 1.49946 6.63315L0.233127 7.65828C0.112524 7.7789 0.112524 7.89948 0.172825 8.02011L1.37885 10.1307C1.43915 10.191 1.55973 10.2513 1.74066 10.191L3.2482 9.58794C3.5497 9.82915 3.91151 10.0101 4.27332 10.191L4.51453 11.7588C4.51453 11.8794 4.63513 12 4.81603 12H7.22809C7.34871 12 7.52959 11.8794 7.52959 11.7588L7.7708 10.191C8.13261 10.0101 8.49442 9.82915 8.79592 9.58794L10.3035 10.191C10.4241 10.2513 10.605 10.191 10.6653 10.0703L11.8713 7.95978C11.9316 7.83918 11.9316 7.65828 11.811 7.59798L10.4241 6.63315ZM5.96178 8.14069C4.81606 8.14069 3.85123 7.17587 3.85123 6.03014C3.85123 4.88441 4.81606 3.91959 5.96178 3.91959C7.10751 3.91959 8.07233 4.88441 8.07233 6.03014C8.07233 7.17587 7.10751 8.14069 5.96178 8.14069Z" fill="white"/>
</svg>
